PathFileType	4	(X/Y/Z)	imu.trc
DataRate	CameraRate	NumFrames	NumMarkers	Units	OrigDataRate	OrigDataStartFrame	OrigNumFrames
60	60	66	2	mm	60	423	1056
Frame#	Time	humerus	radius
X1	Y1	Z1	X2	Y2	Z2

423	4.22	6.14252	5.27276	4.81273	6.20672	5.80164	4.82453	
424	4.23	6.12981	5.27083	4.8102	6.19704	5.80114	4.82348	
425	4.24	6.11677	5.26894	4.80795	6.18716	5.79968	4.82241	
426	4.25	6.10334	5.26673	4.8056	6.17748	5.79716	4.82158	
427	4.26	6.08933	5.26427	4.80299	6.16811	5.79398	4.82109	
428	4.27	6.07415	5.26162	4.80025	6.14951	5.78819	4.82043	
429	4.28	6.06086	5.25967	4.79796	6.13988	5.78603	4.82012	
430	4.29	6.04595	5.25825	4.79518	6.1297	5.78454	4.8196	
431	4.3	6.03016	5.25759	4.79191	6.11894	5.78374	4.81886	
432	4.31	6.01353	5.2573	4.78828	6.11894	5.78374	4.81886	
433	4.32	5.9966	5.25687	4.78442	6.08363	5.78163	4.81518	
434	4.33	5.97907	5.25625	4.78046	6.07159	5.7793	4.81385	
435	4.34	5.96144	5.25477	4.77639	6.05976	5.77621	4.81268	
436	4.35	5.96144	5.25477	4.77639	6.04804	5.77329	4.81171	
437	4.36	5.93409	5.25269	4.76908	6.03611	5.77128	4.81079	
438	4.37001	5.90564	5.25279	4.76189	6.01109	5.77052	4.80899	
439	4.38001	5.88607	5.25459	4.75718	5.99769	5.77169	4.80767	
440	4.39001	5.86591	5.25715	4.75226	5.98381	5.77311	4.80598	
441	4.40001	5.84532	5.25904	4.74704	5.96964	5.77384	4.80417	
442	4.41001	5.82449	5.25912	4.74145	5.95542	5.77345	4.80232	
443	4.42001	5.80365	5.25723	4.73579	5.94148	5.77186	4.80057	
444	4.43001	5.78301	5.25402	4.73043	5.91434	5.76651	4.79787	
445	4.44001	5.76241	5.25062	4.72549	5.90103	5.76403	4.79686	
446	4.45001	5.74171	5.24773	4.72079	5.88759	5.76233	4.7959	
447	4.46001	5.72092	5.24575	4.71614	5.87378	5.76159	4.79471	
448	4.47001	5.69996	5.24456	4.71137	5.85946	5.76171	4.79326	
449	4.48001	5.67904	5.24365	4.70679	5.84477	5.76211	4.79155	
450	4.49001	5.6583	5.24253	4.70241	5.81469	5.75963	4.78801	
451	4.50001	5.63759	5.24121	4.69825	5.80003	5.75681	4.78664	
452	4.51001	5.61679	5.24009	4.69419	5.78584	5.75373	4.78565	
453	4.52001	5.59604	5.23957	4.69037	5.77177	5.75124	4.78486	
454	4.53001	5.57564	5.23968	4.68682	5.75761	5.74962	4.78399	
455	4.54001	5.55546	5.24025	4.68365	5.72864	5.74791	4.78167	
456	4.55001	5.53523	5.24108	4.68049	5.71402	5.74765	4.78024	
457	4.56001	5.51467	5.24165	4.67681	5.69946	5.74712	4.77867	
458	4.57001	5.49389	5.24211	4.67271	5.68509	5.74597	4.77701	
459	4.58001	5.47346	5.24267	4.66858	5.65674	5.74264	4.77342	
460	4.59001	5.45315	5.24329	4.66451	5.64288	5.74076	4.77183	
461	4.60001	5.43301	5.24394	4.66054	5.62917	5.73932	4.77045	
462	4.61001	5.41344	5.24493	4.65704	5.61541	5.73854	4.76911	
463	4.62001	5.39449	5.24632	4.65401	5.60148	5.7384	4.76774	
464	4.63001	5.37611	5.24783	4.65109	5.58747	5.7386	4.76635	
465	4.64001	5.35803	5.24956	4.64833	5.55968	5.73864	4.76364	
466	4.65001	5.34013	5.25179	4.64577	5.54612	5.73841	4.7624	
467	4.66001	5.33124	5.25305	4.64455	5.53278	5.73794	4.76115	
468	4.67001	5.31331	5.25549	4.64225	5.51959	5.7368	4.75989	
469	4.68001	5.29595	5.25714	4.64028	5.50657	5.73482	4.75856	
470	4.69001	5.27893	5.25704	4.63859	5.48169	5.72777	4.75591	
471	4.70001	5.26225	5.25439	4.63667	5.46997	5.72326	4.75484	
472	4.71001	5.24592	5.25076	4.63466	5.45867	5.71899	4.75404	
473	4.72001	5.22992	5.24738	4.6325	5.44747	5.71553	4.75344	
474	4.73001	5.21442	5.24511	4.6307	5.43595	5.71287	4.75278	
475	4.74001	5.1992	5.24443	4.62937	5.42414	5.71083	4.75192	
476	4.75001	5.18401	5.24442	4.62813	5.40018	5.70676	4.74976	
477	4.76001	5.16869	5.2443	4.62669	5.38857	5.70415	4.74858	
478	4.77001	5.15373	5.24377	4.6253	5.37735	5.7012	4.74741	
479	4.78001	5.13919	5.24272	4.62392	5.3666	5.69799	4.74642	
480	4.79001	5.12506	5.24132	4.62245	5.35625	5.69475	4.74566	
481	4.80001	5.11115	5.2401	4.62079	5.33629	5.69018	4.74454	
482	4.81002	5.09774	5.23938	4.61923	5.32612	5.68926	4.74386	
483	4.82002	5.08498	5.23938	4.6182	5.31583	5.68914	4.74299	
484	4.83002	5.07249	5.23979	4.61743	5.30549	5.68921	4.742	
485	4.84002	5.06001	5.23979	4.61641	5.29534	5.68854	4.741	
486	4.85002	5.04752	5.23915	4.61517	5.28551	5.68671	4.73989	
487	4.86002	5.03496	5.2381	4.61358	5.26666	5.68068	4.73781	
488	4.87002	5.02238	5.23715	4.61166	5.25781	5.67817	4.73696	
